<svg width="22" height="22" viewBox="0 0 22 22" fill="none" xmlns="http://www.w3.org/2000/svg">
<path d="M1.36472 1.88531L3.53138 2.26031L4.53451 14.2114C4.61472 15.1874 5.43034 15.9364 6.40951 15.9332H17.773C18.7074 15.9353 19.5001 15.2478 19.6324 14.3228L20.621 7.49157C20.7314 6.72802 20.2012 6.01969 19.4387 5.90927C19.372 5.8999 3.8793 5.89469 3.8793 5.89469" stroke="#333333" stroke-width="2" stroke-linecap="round" stroke-linejoin="round"/>
<path d="M13.2136 9.74459H16.1022" stroke="#333333" stroke-width="2" stroke-linecap="round" stroke-linejoin="round"/>
<path fill-rule="evenodd" clip-rule="evenodd" d="M5.95253 19.5443C6.26607 19.5443 6.5192 19.7984 6.5192 20.1109C6.5192 20.4245 6.26607 20.6786 5.95253 20.6786C5.63899 20.6786 5.38586 20.4245 5.38586 20.1109C5.38586 19.7984 5.63899 19.5443 5.95253 19.5443Z" fill="#333333" stroke="#333333" stroke-width="2" stroke-linecap="round" stroke-linejoin="round"/>
<path fill-rule="evenodd" clip-rule="evenodd" d="M17.7028 19.5443C18.0164 19.5443 18.2705 19.7984 18.2705 20.1109C18.2705 20.4245 18.0164 20.6786 17.7028 20.6786C17.3893 20.6786 17.1362 20.4245 17.1362 20.1109C17.1362 19.7984 17.3893 19.5443 17.7028 19.5443Z" fill="#333333" stroke="#333333" stroke-width="2" stroke-linecap="round" stroke-linejoin="round"/>
</svg>
