<svg width="14" height="15" viewBox="0 0 14 15" fill="none" xmlns="http://www.w3.org/2000/svg">
<path opacity="0.3" fill-rule="evenodd" clip-rule="evenodd" d="M11.3122 11.7734C9.42536 13.6604 6.63147 14.068 4.3451 13.0107C4.00758 12.8748 3.73085 12.765 3.46778 12.765C2.73503 12.7693 1.82296 13.4798 1.34894 13.0063C0.874914 12.5323 1.58595 11.6195 1.58595 10.8823C1.58595 10.6192 1.48047 10.3474 1.3446 10.0092C0.286725 7.72322 0.694983 4.9284 2.58178 3.04202C4.99037 0.63254 8.90356 0.63254 11.3122 3.0414C13.7251 5.4546 13.7207 9.3645 11.3122 11.7734Z" fill="#EA2427" stroke="#EA2427" stroke-width="1.3891" stroke-linecap="round" stroke-linejoin="round"/>
<path d="M9.37854 7.66361H9.3841" stroke="white" stroke-width="1.85213" stroke-linecap="round" stroke-linejoin="round"/>
<path d="M6.90344 7.66361H6.909" stroke="white" stroke-width="1.85213" stroke-linecap="round" stroke-linejoin="round"/>
<path d="M4.42841 7.66361H4.43396" stroke="white" stroke-width="1.85213" stroke-linecap="round" stroke-linejoin="round"/>
</svg>
