<svg width="54" height="30" viewBox="0 0 54 30" fill="none" xmlns="http://www.w3.org/2000/svg">
<rect width="54" height="30" rx="15" fill="#333333"/>
<g clip-path="url(#clip0_847_1186)">
<path d="M46.338 14.4577H45.65C45.2618 14.4577 44.948 14.7097 44.948 15.02C44.948 15.3296 45.2618 15.5809 45.65 15.5809H46.338C46.7255 15.5809 47.04 15.3303 47.04 15.02C47.04 14.7104 46.7248 14.4577 46.338 14.4577ZM40.02 11.159C39.5125 11.1574 39.0097 11.2562 38.5406 11.4497C38.0714 11.6432 37.6452 11.9275 37.2863 12.2863C36.9275 12.6452 36.6432 13.0714 36.4497 13.5406C36.2562 14.0097 36.1574 14.5125 36.159 15.02C36.159 17.1618 37.8782 18.881 40.02 18.881C42.1611 18.881 43.881 17.1618 43.881 15.02C43.881 12.8782 42.1604 11.159 40.02 11.159ZM40.02 17.828C38.4679 17.828 37.212 16.5707 37.212 15.02C37.212 13.4679 38.4679 12.212 40.02 12.212C40.7647 12.212 41.479 12.5078 42.0056 13.0344C42.5322 13.561 42.828 14.2753 42.828 15.02C42.828 15.7647 42.5322 16.479 42.0056 17.0056C41.479 17.5322 40.7647 17.828 40.02 17.828ZM35.106 15.02C35.106 14.7104 34.7908 14.4577 34.404 14.4577H33.702C33.3138 14.4577 33 14.7097 33 15.02C33 15.3296 33.3138 15.5809 33.702 15.5809H34.404C34.7908 15.5809 35.106 15.3296 35.106 15.02ZM40.02 10.106C40.3296 10.106 40.5809 9.79221 40.5809 9.404V8.702C40.5809 8.31379 40.3296 8 40.02 8C39.7097 8 39.4577 8.31379 39.4577 8.702V9.404C39.4577 9.79221 39.7097 10.106 40.02 10.106ZM40.02 19.934C39.7097 19.934 39.4577 20.2478 39.4577 20.636V21.338C39.4577 21.7262 39.7097 22.04 40.02 22.04C40.3296 22.04 40.5809 21.7262 40.5809 21.338V20.636C40.5809 20.2478 40.3296 19.934 40.02 19.934ZM45.1902 10.6437C45.4647 10.3693 45.5089 9.96911 45.2899 9.75009C45.0709 9.53106 44.67 9.57599 44.397 9.85047L43.9056 10.3412C43.6311 10.6157 43.5869 11.0158 43.8059 11.2348C44.0249 11.4538 44.4258 11.4089 44.6995 11.1344L45.1902 10.6437ZM35.3405 18.9042L34.8491 19.3963C34.5746 19.6707 34.5304 20.0695 34.7494 20.2885C34.9684 20.5075 35.3693 20.464 35.6423 20.1895L36.1337 19.6988C36.4082 19.4243 36.4524 19.0242 36.2334 18.8045C36.0144 18.5848 35.6135 18.6311 35.3405 18.9042ZM35.643 9.84977C35.3693 9.57529 34.9684 9.53036 34.7494 9.74938C34.5304 9.96841 34.5753 10.3693 34.8484 10.6437L35.3398 11.1344C35.6142 11.4089 36.0137 11.4538 36.2327 11.2348C36.4517 11.0158 36.4075 10.615 36.1337 10.3412L35.643 9.84977ZM43.9049 19.6995L44.3963 20.1902C44.6707 20.4647 45.0702 20.5082 45.2892 20.2906C45.5082 20.0716 45.464 19.6708 45.1895 19.397L44.6988 18.9063C44.4243 18.6318 44.0242 18.5869 43.8045 18.8059C43.5848 19.0249 43.6304 19.4251 43.9049 19.6995Z" fill="#F5F5F5"/>
</g>
<rect x="3" y="3" width="24" height="24" rx="12" fill="#F5F5F5"/>
<defs>
<clipPath id="clip0_847_1186">
<rect width="14.04" height="14.04" fill="white" transform="translate(33 8)"/>
</clipPath>
</defs>
</svg>
