<svg width="54" height="30" viewBox="0 0 54 30" fill="none" xmlns="http://www.w3.org/2000/svg">
<rect x="54" y="30" width="54" height="30" rx="15" transform="rotate(-180 54 30)" fill="#1A1A1A"/>
<path d="M13.5743 20.6349C10.0191 20.6349 7.1272 17.743 7.1272 14.1878C7.1272 11.773 8.46252 9.57994 10.6122 8.46537C10.6983 8.42032 10.7953 8.40052 10.8921 8.40825C10.9888 8.41599 11.0815 8.45094 11.1593 8.50908C11.237 8.56722 11.2968 8.64618 11.3316 8.73682C11.3664 8.82747 11.3748 8.92611 11.356 9.02136C11.2888 9.36407 11.2546 9.71243 11.2539 10.0617C11.2539 13.048 13.6831 15.4772 16.6694 15.4772C17.5416 15.4772 18.3782 15.273 19.1565 14.8686C19.2426 14.8238 19.3396 14.8042 19.4363 14.8121C19.5331 14.82 19.6256 14.855 19.7034 14.9131C19.7811 14.9712 19.8409 15.0501 19.8758 15.1407C19.9107 15.2313 19.9193 15.3299 19.9007 15.4251C19.3127 18.4434 16.6524 20.6349 13.5743 20.6349ZM10.2234 9.93685C9.57897 10.442 9.05815 11.0873 8.70041 11.8238C8.34267 12.5602 8.15742 13.3685 8.15873 14.1873C8.15873 17.1736 10.588 19.6029 13.5743 19.6029C15.8107 19.6029 17.7845 18.2263 18.5958 16.2137C17.9759 16.4097 17.3306 16.5082 16.6689 16.5082C13.1137 16.5082 10.2218 13.6163 10.2218 10.0612C10.2218 10.0199 10.2223 9.97811 10.2234 9.93685Z" fill="white"/>
<rect x="51" y="27" width="24" height="24" rx="12" transform="rotate(-180 51 27)" fill="#F5F5F5"/>
</svg>
