<svg width="13" height="13" viewBox="0 0 13 13" fill="none" xmlns="http://www.w3.org/2000/svg">
<path fill-rule="evenodd" clip-rule="evenodd" d="M7.09024 1.57883L8.21844 3.83271C8.32901 4.05398 8.54244 4.20741 8.78993 4.24291L11.3138 4.6062C11.9373 4.69623 12.1855 5.45196 11.7342 5.88498L9.90913 7.63864C9.72978 7.81109 9.64814 8.05899 9.69056 8.30244L10.1213 10.7782C10.2273 11.3907 9.57549 11.8579 9.01814 11.5682L6.76239 10.3985C6.54125 10.2837 6.27639 10.2837 6.05461 10.3985L3.79885 11.5682C3.2415 11.8579 2.58965 11.3907 2.69636 10.7782L3.12643 8.30244C3.16886 8.05899 3.08722 7.81109 2.90786 7.63864L1.08281 5.88498C0.631533 5.45196 0.879673 4.69623 1.50324 4.6062L4.02706 4.24291C4.27456 4.20741 4.48863 4.05398 4.5992 3.83271L5.72676 1.57883C6.00575 1.02154 6.81124 1.02154 7.09024 1.57883Z" fill="#EA2427" stroke="#EA2427" stroke-width="1.3891" stroke-linecap="round" stroke-linejoin="round"/>
</svg>
