<svg width="26" height="26" viewBox="0 0 26 26" fill="none" xmlns="http://www.w3.org/2000/svg">
<path d="M6.3333 16.75C4.49997 16.75 2.99997 15.1429 2.99997 13.1786C2.99997 11.5714 5.16664 5.94643 5.5833 4.78571C5.66664 4.42857 5.99997 4.25 6.3333 4.25C6.66664 4.25 6.99997 4.42857 7.0833 4.78571C7.49997 5.94643 9.66664 11.5714 9.66664 13.1786C9.66664 15.1429 8.16664 16.75 6.3333 16.75ZM6.3333 7.55357C5.49997 9.96429 4.66664 12.4643 4.66664 13.1786C4.66664 14.1607 5.41664 14.9643 6.3333 14.9643C7.24997 14.9643 7.99997 14.1607 7.99997 13.1786C7.99997 12.4643 7.16664 9.96429 6.3333 7.55357ZM19.6666 16.75C17.8333 16.75 16.3333 15.1429 16.3333 13.1786C16.3333 11.5714 18.5 5.94643 18.9166 4.78571C19 4.42857 19.3333 4.25 19.6666 4.25C20 4.25 20.3333 4.42857 20.4166 4.78571C20.8333 5.94643 23 11.5714 23 13.1786C23 15.1429 21.5 16.75 19.6666 16.75ZM19.6666 7.55357C18.8333 9.875 18 12.4643 18 13.1786C18 14.1607 18.75 14.9643 19.6666 14.9643C20.5833 14.9643 21.3333 14.1607 21.3333 13.1786C21.3333 12.4643 20.5 9.96429 19.6666 7.55357Z" fill="#333333"/>
<path d="M19.6667 6.375H6.33333C5.83333 6.375 5.5 5.95 5.5 5.3125C5.5 4.675 5.83333 4.25 6.33333 4.25H19.6667C20.1667 4.25 20.5 4.675 20.5 5.3125C20.5 5.95 20.1667 6.375 19.6667 6.375Z" fill="#333333"/>
<path d="M12.8125 21.75C12.175 21.75 11.75 21.4 11.75 20.875V5.125C11.75 4.6 12.175 4.25 12.8125 4.25C13.45 4.25 13.875 4.6 13.875 5.125V20.875C13.875 21.4 13.45 21.75 12.8125 21.75Z" fill="#333333"/>
<path d="M18 21.75H7.99997C7.49997 21.75 7.16664 21.3864 7.16664 20.8409C7.16664 20.2955 7.49997 19.9318 7.99997 19.9318H18C18.5 19.9318 18.8333 20.2955 18.8333 20.8409C18.8333 21.3864 18.5 21.75 18 21.75ZM8.8333 13.5682H3.8333C3.3333 13.5682 2.99997 13.2045 2.99997 12.6591C2.99997 12.1136 3.3333 11.75 3.8333 11.75H8.8333C9.3333 11.75 9.66664 12.1136 9.66664 12.6591C9.66664 13.2045 9.3333 13.5682 8.8333 13.5682ZM22.1666 13.5682H17.1666C16.6666 13.5682 16.3333 13.2045 16.3333 12.6591C16.3333 12.1136 16.6666 11.75 17.1666 11.75H22.1666C22.6666 11.75 23 12.1136 23 12.6591C23 13.2045 22.6666 13.5682 22.1666 13.5682Z" fill="#333333"/>
</svg>
